<svg version="1.1" id="레이어_1" xmlns="http://www.w3.org/2000/svg" xmlns:xlink="http://www.w3.org/1999/xlink" x="0px"
    y="0px" viewBox="0 0 1417.32 666.13" style="enable-background:new 0 0 1417.32 666.13;" xml:space="preserve">
<style type="text/css">
	.st0{fill:#7D8500;}
	.st1{fill:#7B7A7B;}
</style>
  <g>
	<g>
		<path class="st0" d="M204.04,604.08c-40.1,3.22-46.51-48.68-40.1-60.04c6.42-11.33,3.22-25.94-3.2-32.44
			c-6.42-6.48-9.62-14.6-1.6-30.8c-11.23-3.27-11.23-25.96-3.2-40.56c8.01-14.59-8.02-19.45-8.02-19.45s0,0-27.26-3.26
			c-27.3-3.24-11.25-29.19-11.25-29.19s25.67-40.55,40.1-64.86c27.26-29.19,20.85-55.15,14.43-69.75
			c-6.41-14.59-6.76-61.25,6.48-106.59c11.28-38.7,38.44-78.78,104.87-103.35H103.35c0,0-63.09-3.82-63.09,55.55v459.3
			c0,74.83,67.34,69.49,67.34,69.49h163.95C271.55,628.12,244.15,600.8,204.04,604.08z"/>
	</g>
    <g>
		<path class="st1" d="M588.5,39.71c-129.15,0-241.62,67.94-300.11,168.29c58.49,100.35,170.96,168.31,300.11,168.31
			c129.19,0,241.65-67.96,300.14-168.31C830.15,107.65,717.69,39.71,588.5,39.71z M338.04,208
			c45.51-64.31,116.55-108.03,196.24-121.82l10.77,23.63c13.16-5.66,27.67-8.81,42.87-8.81c60.07,0,108.74,48.69,108.74,108.72
			c0,60.06-48.67,108.73-108.74,108.73c-60.02,0-108.7-48.66-108.7-108.73c0-13.28,2.38-26,6.73-37.77l-26.25-10.43
			c-5.65,14.99-8.77,31.25-8.77,48.2c0,49.2,26.04,92.19,64.94,116.37C443.74,309.14,380.03,267.33,338.04,208z M659.39,326.45
			c39.27-24.09,65.56-67.28,65.56-116.72c0-53.45-30.71-99.65-75.37-122.21C726.48,102.57,794.79,145.54,839,208
			C796.68,267.8,732.27,309.76,659.39,326.45z"/>
      <path class="st1" d="M587.94,292.73c45.83,0,82.99-37.15,82.99-83c0-45.83-37.16-82.98-82.99-82.98
			c-11.43,0-22.32,2.31-32.26,6.49l36.87,81.11l-82.65-32.87c-3.21,8.82-4.95,18.33-4.95,28.25
			C504.95,255.59,542.12,292.73,587.94,292.73z"/>
	</g>
    <g>
		<g>
			<path class="st0" d="M441.29,619.38h-22.65v-58.33h-81.5v58.33h-22.3V482.11h22.3v58.86h81.5v-58.86h22.65V619.38z"/>
      <path class="st0" d="M591.93,599.3l-22.64,20.08h-91.61l-22.66-20.08v-97.12l22.66-20.07h91.61l22.64,20.07V599.3z M569.29,599.3
				v-97.12h-91.61v97.12H569.29z"/>
      <path class="st0" d="M742.59,619.38h-22.65v-117.2h-91.63v117.2l-22.65-0.35V502.18l22.65-20.07h91.63l22.65,20.07V619.38z"/>
      <path class="st0" d="M1194.86,599.3l-22.65,20.08h-91.62l-22.66-20.08v-97.12l22.66-20.07h91.62l22.65,20.07V599.3z
				 M1172.22,599.3v-97.12h-91.62v97.12H1172.22z"/>
		</g>
      <polygon class="st0" points="1021.92,482.11 929.25,482.11 929.25,433.21 906.96,433.21 906.96,502.18 1021.92,502.18
			1021.92,599.3 929.61,599.3 929.61,541.32 906.96,541.32 906.96,599.3 906.96,612.04 906.96,619.38 1021.92,619.38 1044.21,599.3
			1044.21,502.18 		"/>
      <polygon class="st0" points="893.23,502.18 893.23,482.11 778.97,482.11 756.31,502.18 756.31,599.3 778.97,619.38 893.23,619.38
			893.23,560.51 893.23,560.19 893.23,540.44 825.75,540.44 825.75,560.51 870.58,560.51 870.58,599.3 778.97,599.3 778.97,502.18
					"/>
      <polygon class="st0" points="1346.71,502.18 1346.71,482.11 1232.44,482.11 1209.8,502.18 1209.8,599.3 1232.44,619.38
			1346.71,619.38 1346.71,560.51 1346.71,560.19 1346.71,540.44 1279.24,540.44 1279.24,560.51 1324.06,560.51 1324.06,599.3
			1232.44,599.3 1232.44,502.18 		"/>
	</g>
</g>
</svg>